<?xml version="1.0" encoding="utf-8"?>
<!-- Generator: Adobe Illustrator 16.0.0, SVG Export Plug-In . SVG Version: 6.00 Build 0)  -->
<!DOCTYPE svg PUBLIC "-//W3C//DTD SVG 1.1//EN" "http://www.w3.org/Graphics/SVG/1.1/DTD/svg11.dtd">
<svg version="1.1" id="Logo_1_" xmlns="http://www.w3.org/2000/svg" xmlns:xlink="http://www.w3.org/1999/xlink" x="0px" y="0px"
	 width="165px" height="90px" viewBox="0 0 165 90" enable-background="new 0 0 165 90" xml:space="preserve">
<g id="MeHelpYou">
	<rect x="-16.271" y="52.594" fill="none" width="197.124" height="54.406"/>
	<text transform="matrix(1 0 0 1 8.2725 72.8164)" fill="#4B4B4B" font-family="'Lato-Black'" font-size="27">MeHelpYou</text>
</g>
<g>
	<g id="Shape_11_2_">
		<g>
			<path fill="#26A742" d="M106.799,5.5H60.591c-1.063,0-1.925,0.916-1.925,2.046v30.688c0,1.13,0.862,2.046,1.925,2.046h31.658
				c2.525,2.075,6.209,5.096,8.153,6.668c0.943,0.765,2.063,0.625,1.975-0.25c-0.204-1.974-0.476-4.578-0.668-6.418h5.09
				c1.064,0,1.925-0.916,1.925-2.046V7.546C108.724,6.416,107.863,5.5,106.799,5.5z"/>
		</g>
	</g>
	<path fill-rule="evenodd" clip-rule="evenodd" fill="#FFFFFF" d="M67.209,27.085c-0.853-0.681-0.927-1.421-0.498-2.445
		c1.054-2.509,2.036-5.055,2.908-7.632c0.356-1.052,0.937-1.656,1.945-1.952c1.219-0.358,2.37-1.034,3.984-0.805
		c-0.905,0.8-1.63,1.496-2.414,2.12c-0.552,0.438-0.443,0.718,0.017,1.141c1.408,1.298,3.812,1.574,5.586,0.238
		c2.289-1.728,4.363-1.275,6.546,0.05c4.088,2.481,8.194,4.931,12.288,7.399c0.344,0.206,0.715,0.399,0.991,0.678
		c0.627,0.627,0.673,1.391,0.14,2.066c-0.62,0.786-1.466,0.808-2.291,0.327c-1.508-0.876-2.991-1.792-4.486-2.689
		c-1.186-0.715-2.366-1.445-3.571-2.128c-0.348-0.197-0.81-0.786-1.137-0.291c-0.353,0.532,0.391,0.691,0.721,0.894
		c2.169,1.335,4.36,2.634,6.546,3.944c0.42,0.252,0.866,0.49,1.051,0.987c0.26,0.697,0.158,1.353-0.417,1.835
		c-0.658,0.553-1.395,0.505-2.112,0.076c-1.994-1.193-3.985-2.39-5.979-3.586c-0.229-0.139-0.448-0.298-0.688-0.415
		c-0.217-0.109-0.469-0.396-0.698-0.104c-0.309,0.389,0.075,0.541,0.331,0.697c1.566,0.951,3.139,1.895,4.707,2.843
		c0.267,0.161,0.543,0.317,0.793,0.499c0.787,0.564,0.93,1.345,0.472,2.123c-0.457,0.776-1.261,1.117-2.074,0.608
		c-2.337-1.457-4.959-2.484-6.941-4.483c-0.767-0.77-1.871-0.337-2.559-0.709c-0.646-0.347-0.665-1.69-1.678-2.051
		c-0.71-0.252-1.482-0.337-2.061,0.136c-0.659,0.535-1.018,0.361-1.496-0.186c-0.215-0.248-0.681-0.538-0.923-0.462
		c-1.54,0.489-2.651-0.33-3.929-0.961C69.087,24.255,68.074,25.126,67.209,27.085z"/>
	<path fill-rule="evenodd" clip-rule="evenodd" fill="#FFFFFF" d="M62.923,29.104c-0.174-0.044-0.441-0.085-0.692-0.177
		c-2.935-1.068-5.868-2.142-8.797-3.224c-1.138-0.419-1.496-1.265-1.083-2.357c1.546-4.091,3.129-8.167,4.701-12.247
		c0.435-1.127,1.229-1.464,2.353-1.053c2.935,1.073,5.875,2.132,8.801,3.226c1.233,0.462,1.591,1.202,1.13,2.422
		c-1.543,4.092-3.13,8.167-4.686,12.254C64.355,28.724,63.802,29.061,62.923,29.104z"/>
	<path fill-rule="evenodd" clip-rule="evenodd" fill="#FFFFFF" d="M113.338,24.274c0.008,0.966-0.383,1.517-1.24,1.761
		c-3.048,0.866-6.088,1.771-9.144,2.617c-1.152,0.319-1.99-0.036-2.362-1.3c-1.208-4.108-2.466-8.202-3.673-12.311
		c-0.409-1.395,0-2.062,1.441-2.479c2.873-0.83,5.748-1.648,8.632-2.447c1.54-0.429,2.124-0.107,2.586,1.416
		c1.212,4.014,2.409,8.033,3.606,12.051C113.261,23.837,113.302,24.104,113.338,24.274z"/>
	<path fill-rule="evenodd" clip-rule="evenodd" fill="#FFFFFF" d="M99.229,25.364c-1.104-0.658-1.934-1.149-2.763-1.646
		c-3.676-2.205-7.376-4.377-11.018-6.638c-1.147-0.712-2.363-1.024-3.645-1.228c-1.217-0.195-2.146,0.447-3.066,1.099
		c-1.331,0.94-2.74,1.264-4.292,0.575c-0.663-0.294-0.975-0.56-0.224-1.18c1.381-1.138,2.699-2.351,4.043-3.532
		c0.343-0.299,0.715-0.619,1.171-0.601c2.222,0.082,4.475-0.037,6.595,0.825c2.262,0.918,4.36,2.326,6.95,2.193
		c0.401-0.021,0.807,0.012,1.206-0.023c1.998-0.165,2.002-0.171,2.585,1.806C97.568,19.698,98.353,22.385,99.229,25.364z"/>
	<path fill-rule="evenodd" clip-rule="evenodd" fill="#FFFFFF" d="M79.426,28.662c-0.47,1.435-0.909,3.027-1.525,4.547
		c-0.314,0.777-1.125,1.02-1.935,0.719c-0.859-0.318-1.293-0.997-1.042-1.906c0.375-1.371,0.812-2.729,1.286-4.071
		c0.305-0.862,0.992-1.271,1.903-1.074C78.954,27.059,79.374,27.658,79.426,28.662z"/>
	<path fill-rule="evenodd" clip-rule="evenodd" fill="#FFFFFF" d="M82.925,30.98c-0.384,1.174-0.756,2.555-1.286,3.872
		c-0.326,0.813-1.126,1.026-1.932,0.764c-0.822-0.267-1.279-0.929-1.072-1.776c0.313-1.296,0.698-2.586,1.188-3.825
		c0.314-0.796,1.07-1.044,1.909-0.82C82.532,29.408,82.889,29.973,82.925,30.98z"/>
	<path fill-rule="evenodd" clip-rule="evenodd" fill="#FFFFFF" d="M75.365,28.211c-0.351,1.037-0.643,2.215-1.146,3.294
		c-0.364,0.779-1.207,0.926-1.985,0.628c-0.735-0.283-1.146-0.919-0.96-1.71c0.241-1.039,0.546-2.072,0.941-3.062
		c0.328-0.822,1.08-1.003,1.903-0.829C74.946,26.711,75.231,27.335,75.365,28.211z"/>
	<path fill-rule="evenodd" clip-rule="evenodd" fill="#FFFFFF" d="M83.839,30.83c1.147,0.688,2.299,1.361,3.427,2.063
		c0.87,0.54,1.287,1.299,0.701,2.251c-0.6,0.973-1.476,1.048-2.436,0.497c-0.153-0.089-0.306-0.184-0.459-0.275
		C82.441,33.809,82.435,33.787,83.839,30.83z"/>
	<path fill-rule="evenodd" clip-rule="evenodd" fill="#FFFFFF" d="M71.394,26.818c-0.021,1.643-0.832,2.696-1.875,2.631
		c-0.963-0.058-1.585-0.585-1.617-1.6c-0.042-1.386,0.834-2.431,1.96-2.372C70.879,25.531,71.368,26.115,71.394,26.818z"/>
</g>
</svg>
