<?xml version="1.0" encoding="utf-8"?>
<!-- Generator: Adobe Illustrator 17.0.0, SVG Export Plug-In . SVG Version: 6.00 Build 0)  -->
<!DOCTYPE svg PUBLIC "-//W3C//DTD SVG 1.1//EN" "http://www.w3.org/Graphics/SVG/1.1/DTD/svg11.dtd">
<svg version="1.1" id="Layer_1" xmlns="http://www.w3.org/2000/svg" xmlns:xlink="http://www.w3.org/1999/xlink" x="0px" y="0px"
	 width="200px" height="51.443px" viewBox="0 0 200 51.443" enable-background="new 0 0 200 51.443" xml:space="preserve">
<g>
	<g>
		<path fill="#00ABA0" d="M10.101,7.099c-2.239,0-4.296,0.782-5.918,2.084V8.876c0-0.982-0.794-1.777-1.772-1.777
			c-0.982,0-1.776,0.796-1.776,1.777v7.69v12.427l0,0l0,0c0,0.982,0.795,1.773,1.776,1.773c0.978,0,1.772-0.791,1.772-1.773l0,0l0,0
			V16.566c0-3.267,2.649-5.918,5.918-5.918s5.917,2.652,5.917,5.918v12.427c0,0.982,0.795,1.773,1.775,1.773
			c0.982,0,1.776-0.791,1.776-1.773V16.566C19.568,11.336,15.329,7.099,10.101,7.099z"/>
		<path fill="#00ABA0" d="M95.511,24.966c-0.489,0-0.934,0.197-1.253,0.515c-0.002,0.001-0.002,0.001-0.006,0.003v0.002
			c-1.073,1.068-2.546,1.73-4.177,1.73h-1.182c-3.267,0-5.917-2.65-5.917-5.918v-0.591h11.242c2.286,0,4.14-1.854,4.14-4.142
			c0-0.136-0.009-0.271-0.02-0.405c-0.212-5.04-4.354-9.062-9.445-9.062c-5.23,0-9.469,4.237-9.469,9.467v4.733
			c0,5.23,4.237,9.467,9.469,9.467l0,0h1.182c2.542,0,4.845-1,6.545-2.629c0.41-0.327,0.671-0.828,0.671-1.391
			C97.29,25.763,96.494,24.966,95.511,24.966z M88.893,10.648c3.268,0,5.916,2.652,5.916,5.918c0,0.327-0.264,0.592-0.59,0.592
			c-0.023,0-0.045-0.004-0.065-0.008v0.008h-4.03h-7.147v-0.592C82.976,13.299,85.626,10.648,88.893,10.648z"/>
		<path fill="#00ABA0" d="M56.94,7.099c-0.982,0-1.776,0.796-1.776,1.775v20.118c0,0.982,0.795,1.773,1.776,1.773
			c0.978,0,1.772-0.791,1.772-1.773V8.874C58.712,7.895,57.918,7.099,56.94,7.099z"/>
		<path fill="#00ABA0" d="M39.127,7.099c-0.981,0-1.776,0.796-1.776,1.775v0.308c-1.621-1.301-3.676-2.083-5.916-2.083
			c-5.228,0-9.467,4.237-9.467,9.467v4.733c0,5.23,4.24,9.467,9.467,9.467c2.24,0,4.295-0.782,5.916-2.083v0.309
			c0,0.982,0.795,1.773,1.776,1.773c0.978,0,1.774-0.791,1.774-1.773v-7.693v-4.733V8.874C40.901,7.895,40.104,7.099,39.127,7.099z
			 M31.435,27.217c-3.269,0-5.917-2.65-5.917-5.918v-4.733c0-3.267,2.648-5.918,5.917-5.918c3.267,0,5.916,2.652,5.916,5.918v4.733
			C37.351,24.568,34.701,27.217,31.435,27.217z"/>
		<path fill="#00ABA0" d="M77.053,7.099c-0.787,0-1.447,0.542-1.626,1.273l-5.506,17.03l-5.506-17.03
			c-0.182-0.732-0.838-1.273-1.626-1.273c-0.927,0-1.676,0.752-1.676,1.677c0,0.179,0.028,0.352,0.081,0.513H61.19l6.366,19.657
			h0.002c0.279,1.046,1.231,1.817,2.362,1.817s2.083-0.771,2.36-1.817h0.004L78.651,9.29H78.65c0.05-0.162,0.081-0.335,0.081-0.513
			C78.731,7.851,77.979,7.099,77.053,7.099z"/>
		<path fill="#00ABA0" d="M117.347,8.874c0-0.954-0.754-1.724-1.694-1.767V7.099h-4.151V1.775c0-0.984-0.796-1.775-1.775-1.775
			c-0.982,0-1.773,0.792-1.773,1.775v19.524c0,3.607,2.033,6.708,4.998,8.305c-0.08-0.26-0.137-0.53-0.137-0.818
			c0-1.072,0.621-1.993,1.516-2.451c-1.694-1.04-2.828-2.903-2.828-5.036V10.648h4.151V10.64
			C116.593,10.596,117.347,9.828,117.347,8.874z"/>
		<g>
			<path fill="#00ABA0" d="M176.892,25.846c-1.044,0-1.943-0.589-2.411-1.446c-1.042,1.689-2.904,2.817-5.034,2.817
				c-3.268,0-5.916-2.65-5.916-5.918v-4.733c0-3.267,2.648-5.918,5.916-5.918c2.809,0,5.16,1.959,5.766,4.587v-0.004h0.002
				c0.197,0.765,0.89,1.335,1.721,1.335c0.978,0,1.775-0.794,1.775-1.775c0-0.19-0.032-0.376-0.088-0.549
				c-1.036-4.103-4.748-7.143-9.175-7.143c-5.228,0-9.467,4.237-9.467,9.467v4.733c0,5.23,4.238,9.467,9.467,9.467
				c3.641,0,6.772-2.07,8.355-5.087C177.516,25.781,177.212,25.846,176.892,25.846z"/>
		</g>
		<g>
			<path fill="#00ABA0" d="M196.451,26.837c0.469-0.372,1.055-0.604,1.698-0.604c0.715,0,1.36,0.28,1.851,0.726V16.566
				c0-5.23-4.241-9.467-9.467-9.467c-2.242,0-4.297,0.782-5.918,2.084V1.775c0-0.984-0.794-1.775-1.776-1.775
				c-0.98,0-1.777,0.792-1.777,1.775v14.791v12.427c0,0.982,0.798,1.773,1.777,1.773c0.858,0,1.574-0.609,1.74-1.416
				c0.024-0.114,0.036-0.235,0.036-0.357V16.566c0-3.267,2.649-5.918,5.918-5.918c3.266,0,5.918,2.652,5.918,5.918V26.837z"/>
		</g>
		<g>
			<path fill="#00ABA0" d="M155.749,11.629c-0.645,0-1.232-0.233-1.702-0.605v10.275c0,3.268-2.647,5.918-5.916,5.918
				c-3.267,0-5.916-2.65-5.916-5.918V8.874c0-0.98-0.796-1.775-1.774-1.775c-0.983,0-1.777,0.796-1.777,1.775v12.425
				c0,5.23,4.237,9.467,9.467,9.467c5.23,0,9.467-4.237,9.467-9.467V10.905C157.106,11.351,156.461,11.629,155.749,11.629z"/>
		</g>
		<circle fill="#706F6F" cx="115.57" cy="28.786" r="1.775"/>
		<path fill="#00ABA0" d="M52.729,8.874c0-0.954-0.754-1.724-1.694-1.767V7.099h-4.151V1.775C46.884,0.792,46.089,0,45.109,0
			c-0.982,0-1.773,0.792-1.773,1.775v19.524c0,3.607,2.033,6.708,4.998,8.305c-0.08-0.26-0.137-0.53-0.137-0.818
			c0-1.072,0.621-1.993,1.516-2.451c-1.694-1.04-2.828-2.903-2.828-5.036V10.648h4.151V10.64
			C51.975,10.596,52.729,9.828,52.729,8.874z"/>
		<circle fill="#706F6F" cx="50.952" cy="28.786" r="1.775"/>
		<path fill="#706F6F" d="M176.892,21.314c-0.983,0-1.775,0.793-1.775,1.775c0,0.98,0.792,1.775,1.775,1.775
			c0.98,0,1.774-0.795,1.774-1.775C178.665,22.107,177.872,21.314,176.892,21.314z"/>
		<circle fill="#706F6F" cx="198.149" cy="28.992" r="1.774"/>
		<circle fill="#706F6F" cx="155.749" cy="8.873" r="1.774"/>
		<path fill="#706F6F" d="M134.431,17.021c-0.978,0-1.775,0.794-1.775,1.777c0,0.98,0.797,1.773,1.775,1.773
			c0.982,0,1.775-0.793,1.775-1.773C136.206,17.815,135.412,17.021,134.431,17.021z"/>
		<g>
			<path fill="#00ABA0" d="M134.431,21.551c-0.645,0-1.232-0.231-1.702-0.603v0.351c0,3.268-2.648,5.918-5.917,5.918
				c-3.267,0-5.916-2.65-5.916-5.918v-4.733c0-3.267,2.649-5.918,5.916-5.918c3.269,0,5.917,2.652,5.917,5.918v0.081
				c0.469-0.375,1.057-0.606,1.702-0.606c0.713,0,1.358,0.278,1.849,0.723v-0.197c0-5.23-4.237-9.467-9.467-9.467
				c-5.228,0-9.465,4.237-9.465,9.467v4.733c0,5.23,4.237,9.467,9.465,9.467c5.23,0,9.467-4.237,9.467-9.467v-0.47
				C135.788,21.273,135.144,21.551,134.431,21.551z"/>
		</g>
	</g>
	<g>
		<path fill="#706F6F" d="M0.059,45.347c0-0.737-0.015-1.341-0.059-1.931h1.135l0.059,1.15h0.044
			c0.398-0.678,1.061-1.312,2.241-1.312c0.973,0,1.71,0.59,2.019,1.43h0.029c0.221-0.398,0.501-0.708,0.796-0.929
			c0.427-0.324,0.899-0.501,1.577-0.501c0.943,0,2.344,0.619,2.344,3.095v4.201H8.977v-4.039c0-1.371-0.501-2.196-1.548-2.196
			c-0.737,0-1.312,0.545-1.533,1.179c-0.059,0.177-0.103,0.413-0.103,0.649v4.407H4.525v-4.275c0-1.135-0.501-1.96-1.489-1.96
			c-0.811,0-1.4,0.649-1.607,1.297c-0.074,0.192-0.103,0.413-0.103,0.634v4.304H0.059V45.347z"/>
		<path fill="#706F6F" d="M18.812,46.924c0,2.639-1.828,3.788-3.552,3.788c-1.931,0-3.42-1.415-3.42-3.67
			c0-2.388,1.562-3.788,3.538-3.788C17.426,43.254,18.812,44.742,18.812,46.924z M13.151,46.998c0,1.562,0.899,2.742,2.167,2.742
			c1.238,0,2.167-1.164,2.167-2.771c0-1.209-0.604-2.742-2.137-2.742S13.151,45.641,13.151,46.998z"/>
		<path fill="#706F6F" d="M20.391,50.55c0.029-0.486,0.059-1.209,0.059-1.843v-8.623h1.282v4.481h0.029
			c0.457-0.796,1.282-1.312,2.432-1.312c1.769,0,3.022,1.474,3.007,3.641c0,2.55-1.607,3.818-3.199,3.818
			c-1.032,0-1.857-0.398-2.388-1.341H21.57l-0.059,1.179H20.391z M21.733,47.69c0,0.162,0.029,0.324,0.059,0.472
			c0.251,0.899,1.002,1.518,1.946,1.518c1.356,0,2.167-1.106,2.167-2.742c0-1.43-0.737-2.653-2.123-2.653
			c-0.884,0-1.71,0.604-1.975,1.592c-0.029,0.147-0.074,0.324-0.074,0.531V47.69z"/>
		<path fill="#706F6F" d="M30.284,41.411c0.015,0.442-0.31,0.796-0.825,0.796c-0.457,0-0.781-0.354-0.781-0.796
			c0-0.457,0.339-0.811,0.811-0.811C29.974,40.6,30.284,40.954,30.284,41.411z M28.839,50.55v-7.134h1.297v7.134H28.839z"/>
		<path fill="#706F6F" d="M32.289,40.084h1.297V50.55h-1.297V40.084z"/>
		<path fill="#706F6F" d="M36.491,47.219c0.029,1.754,1.15,2.476,2.447,2.476c0.929,0,1.489-0.162,1.975-0.369l0.221,0.929
			c-0.457,0.206-1.238,0.442-2.373,0.442c-2.196,0-3.508-1.445-3.508-3.597s1.268-3.847,3.346-3.847
			c2.329,0,2.948,2.049,2.948,3.361c0,0.265-0.029,0.472-0.044,0.604H36.491z M40.294,46.29c0.015-0.825-0.339-2.108-1.798-2.108
			c-1.312,0-1.887,1.209-1.99,2.108H40.294z"/>
		<path fill="#706F6F" d="M50.231,50.55l-0.103-0.899h-0.044c-0.398,0.56-1.164,1.061-2.182,1.061c-1.445,0-2.182-1.017-2.182-2.049
			c0-1.725,1.533-2.668,4.289-2.653v-0.147c0-0.59-0.162-1.651-1.621-1.651c-0.663,0-1.356,0.206-1.857,0.531l-0.295-0.855
			c0.59-0.383,1.445-0.634,2.344-0.634c2.182,0,2.712,1.489,2.712,2.919v2.668c0,0.619,0.029,1.223,0.118,1.71H50.231z
			 M50.04,46.909c-1.415-0.029-3.022,0.221-3.022,1.607c0,0.84,0.56,1.238,1.223,1.238c0.929,0,1.518-0.59,1.725-1.194
			c0.044-0.133,0.074-0.28,0.074-0.413V46.909z"/>
		<path fill="#706F6F" d="M59.549,40.084v8.623c0,0.634,0.015,1.356,0.059,1.843h-1.164l-0.059-1.238h-0.029
			c-0.398,0.796-1.268,1.4-2.432,1.4c-1.725,0-3.051-1.459-3.051-3.626c-0.015-2.373,1.459-3.832,3.199-3.832
			c1.091,0,1.828,0.516,2.152,1.091h0.029v-4.26H59.549z M58.252,46.32c0-0.162-0.015-0.383-0.059-0.545
			c-0.192-0.825-0.899-1.504-1.872-1.504c-1.341,0-2.137,1.179-2.137,2.756c0,1.445,0.708,2.639,2.108,2.639
			c0.87,0,1.666-0.575,1.901-1.548c0.044-0.177,0.059-0.354,0.059-0.56V46.32z"/>
		<path fill="#706F6F" d="M62.204,43.416l1.4,4.009c0.236,0.649,0.427,1.238,0.575,1.828h0.044c0.162-0.59,0.369-1.179,0.604-1.828
			l1.386-4.009h1.356l-2.801,7.134h-1.238l-2.712-7.134H62.204z"/>
		<path fill="#706F6F" d="M69.37,47.219c0.029,1.754,1.15,2.476,2.447,2.476c0.929,0,1.489-0.162,1.975-0.369l0.221,0.929
			c-0.457,0.206-1.238,0.442-2.373,0.442c-2.196,0-3.508-1.445-3.508-3.597s1.268-3.847,3.346-3.847
			c2.329,0,2.948,2.049,2.948,3.361c0,0.265-0.029,0.472-0.044,0.604H69.37z M73.173,46.29c0.015-0.825-0.339-2.108-1.798-2.108
			c-1.312,0-1.887,1.209-1.99,2.108H73.173z"/>
		<path fill="#706F6F" d="M76.034,45.641c0-0.84-0.015-1.562-0.059-2.226h1.135l0.044,1.4h0.059
			c0.324-0.958,1.106-1.562,1.975-1.562c0.147,0,0.251,0.015,0.369,0.044v1.223c-0.133-0.029-0.265-0.044-0.442-0.044
			c-0.914,0-1.562,0.693-1.739,1.666c-0.029,0.177-0.059,0.383-0.059,0.604v3.803h-1.282V45.641z"/>
		<path fill="#706F6F" d="M82.771,41.367v2.049h1.857v0.988h-1.857v3.847c0,0.884,0.251,1.386,0.973,1.386
			c0.339,0,0.59-0.044,0.752-0.088l0.059,0.973c-0.251,0.103-0.649,0.177-1.15,0.177c-0.604,0-1.091-0.192-1.4-0.545
			c-0.368-0.383-0.501-1.017-0.501-1.857v-3.891h-1.106v-0.988h1.106v-1.71L82.771,41.367z"/>
		<path fill="#706F6F" d="M87.534,41.411c0.015,0.442-0.31,0.796-0.825,0.796c-0.457,0-0.781-0.354-0.781-0.796
			c0-0.457,0.339-0.811,0.811-0.811C87.224,40.6,87.534,40.954,87.534,41.411z M86.089,50.55v-7.134h1.297v7.134H86.089z"/>
		<path fill="#706F6F" d="M89.362,49.223c0.383,0.251,1.061,0.516,1.71,0.516c0.943,0,1.386-0.472,1.386-1.061
			c0-0.619-0.368-0.958-1.327-1.312c-1.282-0.457-1.887-1.164-1.887-2.019c0-1.15,0.929-2.093,2.462-2.093
			c0.722,0,1.356,0.206,1.754,0.442l-0.324,0.943c-0.28-0.177-0.796-0.413-1.459-0.413c-0.766,0-1.194,0.442-1.194,0.973
			c0,0.59,0.427,0.855,1.356,1.209c1.238,0.472,1.872,1.091,1.872,2.152c0,1.253-0.973,2.137-2.668,2.137
			c-0.781,0-1.504-0.192-2.005-0.486L89.362,49.223z"/>
		<path fill="#706F6F" d="M96.1,47.219c0.029,1.754,1.15,2.476,2.447,2.476c0.929,0,1.489-0.162,1.975-0.369l0.221,0.929
			c-0.457,0.206-1.238,0.442-2.373,0.442c-2.196,0-3.508-1.445-3.508-3.597s1.268-3.847,3.346-3.847
			c2.329,0,2.948,2.049,2.948,3.361c0,0.265-0.029,0.472-0.044,0.604H96.1z M99.903,46.29c0.015-0.825-0.339-2.108-1.798-2.108
			c-1.312,0-1.887,1.209-1.99,2.108H99.903z"/>
		<path fill="#706F6F" d="M102.764,45.347c0-0.737-0.015-1.341-0.059-1.931h1.135l0.059,1.15h0.044
			c0.398-0.678,1.061-1.312,2.241-1.312c0.973,0,1.711,0.59,2.019,1.43h0.029c0.222-0.398,0.501-0.708,0.796-0.929
			c0.428-0.324,0.9-0.501,1.578-0.501c0.943,0,2.343,0.619,2.343,3.095v4.201h-1.268v-4.039c0-1.371-0.501-2.196-1.547-2.196
			c-0.737,0-1.313,0.545-1.533,1.179c-0.059,0.177-0.104,0.413-0.104,0.649v4.407h-1.268v-4.275c0-1.135-0.501-1.96-1.489-1.96
			c-0.811,0-1.4,0.649-1.607,1.297c-0.074,0.192-0.103,0.413-0.103,0.634v4.304h-1.268V45.347z"/>
		<path fill="#706F6F" d="M115.783,47.219c0.029,1.754,1.15,2.476,2.447,2.476c0.929,0,1.489-0.162,1.975-0.369l0.221,0.929
			c-0.457,0.206-1.238,0.442-2.373,0.442c-2.196,0-3.508-1.445-3.508-3.597s1.268-3.847,3.346-3.847
			c2.329,0,2.948,2.049,2.948,3.361c0,0.265-0.029,0.472-0.044,0.604H115.783z M119.586,46.29c0.015-0.825-0.339-2.108-1.798-2.108
			c-1.312,0-1.887,1.209-1.99,2.108H119.586z"/>
		<path fill="#706F6F" d="M122.448,45.347c0-0.737-0.015-1.341-0.059-1.931h1.15l0.074,1.179h0.029
			c0.354-0.678,1.179-1.341,2.358-1.341c0.988,0,2.521,0.59,2.521,3.036v4.26h-1.297v-4.113c0-1.15-0.427-2.108-1.651-2.108
			c-0.855,0-1.518,0.604-1.739,1.327c-0.059,0.162-0.088,0.383-0.088,0.604v4.289h-1.297V45.347z"/>
		<path fill="#706F6F" d="M132.134,41.367v2.049h1.857v0.988h-1.857v3.847c0,0.884,0.251,1.386,0.973,1.386
			c0.339,0,0.59-0.044,0.752-0.088l0.059,0.973c-0.251,0.103-0.649,0.177-1.15,0.177c-0.604,0-1.091-0.192-1.4-0.545
			c-0.368-0.383-0.501-1.017-0.501-1.857v-3.891h-1.106v-0.988h1.106v-1.71L132.134,41.367z"/>
		<path fill="#706F6F" d="M138.71,50.55v-6.147h-1.002v-0.988h1.002v-0.339c0-1.002,0.221-1.916,0.825-2.491
			c0.486-0.472,1.135-0.663,1.739-0.663c0.457,0,0.855,0.103,1.106,0.206l-0.177,1.002c-0.192-0.088-0.457-0.162-0.825-0.162
			c-1.106,0-1.386,0.973-1.386,2.064v0.383h1.725v0.988h-1.725v6.147H138.71z"/>
		<path fill="#706F6F" d="M149.147,46.924c0,2.639-1.828,3.788-3.552,3.788c-1.931,0-3.42-1.415-3.42-3.67
			c0-2.388,1.562-3.788,3.538-3.788C147.762,43.254,149.147,44.742,149.147,46.924z M143.487,46.998
			c0,1.562,0.899,2.742,2.167,2.742c1.238,0,2.167-1.164,2.167-2.771c0-1.209-0.604-2.742-2.137-2.742
			S143.487,45.641,143.487,46.998z"/>
		<path fill="#706F6F" d="M150.785,45.641c0-0.84-0.015-1.562-0.059-2.226h1.135l0.044,1.4h0.059
			c0.324-0.958,1.106-1.562,1.975-1.562c0.147,0,0.251,0.015,0.368,0.044v1.223c-0.133-0.029-0.265-0.044-0.442-0.044
			c-0.914,0-1.562,0.693-1.739,1.666c-0.029,0.177-0.059,0.383-0.059,0.604v3.803h-1.282V45.641z"/>
		<path fill="#706F6F" d="M158.673,50.55c0.029-0.486,0.059-1.209,0.059-1.843v-8.623h1.282v4.481h0.029
			c0.457-0.796,1.282-1.312,2.432-1.312c1.769,0,3.022,1.474,3.007,3.641c0,2.55-1.607,3.818-3.199,3.818
			c-1.032,0-1.857-0.398-2.388-1.341h-0.044l-0.059,1.179H158.673z M160.015,47.69c0,0.162,0.029,0.324,0.059,0.472
			c0.251,0.899,1.002,1.518,1.946,1.518c1.356,0,2.167-1.106,2.167-2.742c0-1.43-0.737-2.653-2.123-2.653
			c-0.884,0-1.71,0.604-1.975,1.592c-0.029,0.147-0.074,0.324-0.074,0.531V47.69z"/>
		<path fill="#706F6F" d="M167.122,45.641c0-0.84-0.015-1.562-0.059-2.226h1.135l0.044,1.4h0.059
			c0.324-0.958,1.106-1.562,1.975-1.562c0.147,0,0.251,0.015,0.369,0.044v1.223c-0.133-0.029-0.265-0.044-0.442-0.044
			c-0.914,0-1.562,0.693-1.739,1.666c-0.029,0.177-0.059,0.383-0.059,0.604v3.803h-1.282V45.641z"/>
		<path fill="#706F6F" d="M175.819,50.55l-0.103-0.899h-0.044c-0.398,0.56-1.164,1.061-2.182,1.061
			c-1.445,0-2.182-1.017-2.182-2.049c0-1.725,1.533-2.668,4.289-2.653v-0.147c0-0.59-0.162-1.651-1.621-1.651
			c-0.663,0-1.356,0.206-1.857,0.531l-0.295-0.855c0.59-0.383,1.445-0.634,2.344-0.634c2.182,0,2.712,1.489,2.712,2.919v2.668
			c0,0.619,0.029,1.223,0.118,1.71H175.819z M175.628,46.909c-1.415-0.029-3.022,0.221-3.022,1.607c0,0.84,0.56,1.238,1.223,1.238
			c0.929,0,1.518-0.59,1.725-1.194c0.044-0.133,0.074-0.28,0.074-0.413V46.909z"/>
		<path fill="#706F6F" d="M178.976,45.347c0-0.737-0.015-1.341-0.059-1.931h1.15l0.074,1.179h0.029
			c0.354-0.678,1.179-1.341,2.358-1.341c0.988,0,2.521,0.59,2.521,3.036v4.26h-1.297v-4.113c0-1.15-0.427-2.108-1.651-2.108
			c-0.855,0-1.518,0.604-1.739,1.327c-0.059,0.162-0.088,0.383-0.088,0.604v4.289h-1.297V45.347z"/>
		<path fill="#706F6F" d="M193.32,40.084v8.623c0,0.634,0.015,1.356,0.059,1.843h-1.164l-0.059-1.238h-0.029
			c-0.398,0.796-1.268,1.4-2.432,1.4c-1.725,0-3.051-1.459-3.051-3.626c-0.015-2.373,1.459-3.832,3.199-3.832
			c1.091,0,1.828,0.516,2.152,1.091h0.029v-4.26H193.32z M192.023,46.32c0-0.162-0.015-0.383-0.059-0.545
			c-0.192-0.825-0.899-1.504-1.872-1.504c-1.341,0-2.137,1.179-2.137,2.756c0,1.445,0.708,2.639,2.108,2.639
			c0.87,0,1.666-0.575,1.902-1.548c0.044-0.177,0.059-0.354,0.059-0.56V46.32z"/>
		<path fill="#706F6F" d="M195.297,49.223c0.383,0.251,1.061,0.516,1.71,0.516c0.943,0,1.386-0.472,1.386-1.061
			c0-0.619-0.369-0.958-1.327-1.312c-1.282-0.457-1.887-1.164-1.887-2.019c0-1.15,0.929-2.093,2.462-2.093
			c0.722,0,1.356,0.206,1.754,0.442l-0.324,0.943c-0.28-0.177-0.796-0.413-1.459-0.413c-0.766,0-1.194,0.442-1.194,0.973
			c0,0.59,0.427,0.855,1.356,1.209c1.238,0.472,1.872,1.091,1.872,2.152c0,1.253-0.973,2.137-2.668,2.137
			c-0.781,0-1.503-0.192-2.005-0.486L195.297,49.223z"/>
	</g>
</g>
</svg>
